<svg xmlns="http://www.w3.org/2000/svg" viewBox="0 0 476.5 223.9" width="476" height="223">
  <rect width="100%" height="100%" fill="white"/>
  <path d="M43.55433287482806 186.828060522696V66.33287482806053H66.1678129298487V186.828060522696ZM86.05777166437414 153.2379642365887Q78.5474552957359 153.2379642365887 73.10041265474553 149.40027510316366Q67.65337001375516 145.56258596973865 65.01237964236589 138.54745529573592L66.1678129298487 118.98762035763411Q66.1678129298487 123.19669876203577 67.65337001375516 126.1678129298487Q69.13892709766162 129.13892709766162 71.98624484181568 130.707015130674Q74.83356258596973 132.2751031636864 78.87757909215955 132.2751031636864Q85.23246217331499 132.2751031636864 88.74002751031637 128.06602475928474Q92.24759284731775 123.85694635488308 92.24759284731775 116.18156808803302V102.56396148555709Q92.24759284731775 94.7235213204952 88.74002751031637 90.39064649243467Q85.23246217331499 86.05777166437414 78.87757909215955 86.05777166437414Q74.83356258596973 86.05777166437414 71.98624484181568 87.66712517193949Q69.13892709766162 89.27647867950482 67.65337001375516 92.33012379642366Q66.1678129298487 95.38376891334251 66.1678129298487 99.75790921595598L64.43466299862447 80.7757909215956Q67.9009628610729 73.26547455295736 73.55433287482805 69.18019257221458Q79.20770288858321 65.0949105914718 86.05777166437414 65.0949105914718Q99.84044016506189 65.0949105914718 107.35075653370014 74.8748280605227Q114.86107290233838 84.65474552957359 114.86107290233838 102.48143053645117V116.18156808803302Q114.86107290233838 133.84319119669877 107.35075653370014 143.54057771664372Q99.84044016506189 153.2379642365887 86.05777166437414 153.2379642365887Z" fill="black"/>
  <path d="M170.2200825309491 153.2379642365887Q151.56808803301237 153.2379642365887 141.292984869326 143.21045392022006Q131.0178817056396 133.18294360385144 131.0178817056396 114.86107290233838V105.20495185694637Q131.0178817056396 86.05777166437414 140.8803301237964 75.57634112792297Q150.74277854195321 65.0949105914718 168.73452544704264 65.0949105914718Q185.73590096286108 65.0949105914718 195.0206327372765 77.59834938101788Q204.3053645116919 90.10178817056396 204.3053645116919 112.79779917469051V118.4099037138927H145.70839064649243V103.1416781292985H183.6726272352132L183.42503438789547 101.16093535075655Q182.5171939477304 93.81568088033012 178.80330123796423 89.73039889958734Q175.08940852819808 85.64511691884456 168.73452544704264 85.64511691884456Q160.5639614855571 85.64511691884456 156.06602475928474 90.51444291609354Q151.56808803301237 95.38376891334251 151.56808803301237 104.29711141678129V115.19119669876204Q151.56808803301237 123.939477303989 156.4786795048143 128.72627235213204Q161.38927097661622 133.5130674002751 170.2200825309491 133.5130674002751Q174.75928473177441 133.5130674002751 179.2159559834938 131.9037138927098Q183.6726272352132 130.29436038514444 187.30398899587345 127.3232462173315L202.0770288858322 140.44566712517195Q195.3920220082531 146.55295735900964 187.0563961485557 149.89546079779916Q178.72077028885832 153.2379642365887 170.2200825309491 153.2379642365887Z" fill="black"/>
  <path d="M222.1127922971114 152.0V66.33287482806053H246.37689133425033V152.0ZM270.31086657496564 90.18431911966988Q268.7427785419532 88.53370013755159 266.30811554332877 87.70839064649243Q263.87345254470426 86.88308115543329 260.7372764786795 86.88308115543329Q253.8872077028886 86.88308115543329 250.13204951856946 91.29848693259973Q246.37689133425033 95.71389270976616 246.37689133425033 103.55433287482806L244.64374140302613 81.2709766162311Q248.19257221458048 73.67812929848694 253.84594222833564 69.38651994497937Q259.4993122420908 65.0949105914718 266.2668500687758 65.0949105914718Q271.63136176066024 65.0949105914718 275.9642365887207 66.78679504814306Q280.29711141678126 68.47867950481431 283.51581843191195 71.7799174690509Z" fill="black"/>
  <path d="M328.4759284731775 153.2379642365887Q310.0715268225585 153.2379642365887 299.920220082531 142.83906464924345Q289.7689133425035 132.4401650618982 289.7689133425035 113.54057771664375V104.37964236588721Q289.7689133425035 85.64511691884456 299.920220082531 75.37001375515818Q310.0715268225585 65.0949105914718 328.4759284731775 65.0949105914718Q339.03988995873453 65.0949105914718 347.58184319119675 68.64374140302613Q356.1237964236589 72.19257221458047 361.1581843191197 78.79504814305365L346.5502063273728 92.99037138927099Q343.49656121045393 90.10178817056396 339.24621733149934 88.49243466299862Q334.99587345254474 86.88308115543329 330.3741403026135 86.88308115543329Q321.7909215955984 86.88308115543329 317.0866574965612 91.46354883081156Q312.3823933975241 96.04401650618982 312.3823933975241 104.37964236588721V113.54057771664375Q312.3823933975241 122.12379642365887 317.0866574965612 126.78679504814306Q321.7909215955984 131.44979367262724 330.3741403026135 131.44979367262724Q334.99587345254474 131.44979367262724 339.24621733149934 129.71664374140303Q343.49656121045393 127.98349381017881 346.5502063273728 124.76478679504814L361.1581843191197 139.78541953232462Q356.1237964236589 146.22283356258598 347.58184319119675 149.73039889958733Q339.03988995873453 153.2379642365887 328.4759284731775 153.2379642365887Z" fill="black"/>
  <path d="M423.20220082530955 66.33287482806053H444.49518569463555L406.36588720770294 172.05502063273727Q403.14718019257225 180.88583218707015 397.45254470426414 184.31086657496562Q391.75790921595603 187.73590096286108 381.6891334250344 187.73590096286108Q381.6891334250344 192.77028885832186 379.171939477304 192.77028885832186Q376.65474552957363 192.77028885832186 376.65474552957363 187.73590096286108V165.78266850068775H381.6891334250344Q385.23796423658877 165.78266850068775 387.6726272352132 164.21458046767538Q390.1072902338377 162.646492434663 391.42778541953237 158.93259972489685ZM401.1664374140303 159.01513067400276 365.3480055020633 66.33287482806053H386.6409903713893L415.44429160935357 140.7757909215956ZM379.213204951857 191.44979367262724Q380.4511691884457 191.44979367262724 380.4511691884457 190.2118294360385Q380.4511691884457 188.9738651994498 379.213204951857 188.9738651994498Q377.9752407152683 188.9738651994498 377.9752407152683 190.2118294360385Q377.9752407152683 191.44979367262724 379.213204951857 191.44979367262724Z" fill="black"/>
  <circle cx="379.17" cy="192.77" r="1.24" fill="white"/>
</svg>