<svg xmlns="http://www.w3.org/2000/svg" viewBox="0 0 999 1861" width="998" height="1860">
<rect width="100%" height="100%" fill="white"/>
<path d="M259.2572214580468 288.04676753782667V87.22145804676754H296.94635488308114V288.04676753782667ZM330.0962861072902 232.06327372764787Q317.5790921595598 232.06327372764787 308.5006877579092 225.66712517193946Q299.4222833562586 219.27097661623108 295.02063273727646 207.57909215955982L296.94635488308114 174.9793672627235Q296.94635488308114 182.01144742074487 299.438465895299 186.94439917338673Q301.9305769075168 191.87735092602856 306.6552040348464 194.50126143275293Q311.379831162176 197.1251719394773 318.1292984869326 197.1251719394773Q328.74542576107547 197.1251719394773 334.57904025330254 190.10565132137316Q340.41265474552955 183.08613070326905 340.41265474552955 170.30261348005502V147.60660247592847Q340.41265474552955 134.53920220082532 334.57904025330254 127.31774415405778Q328.74542576107547 120.09628610729024 318.1292984869326 120.09628610729024Q311.379831162176 120.09628610729024 306.6552040348464 122.75650699109254Q301.9305769075168 125.41672787489483 299.438465895299 130.51548456884925Q296.94635488308114 135.61424126280366 296.94635488308114 142.92984869325997L294.0577716643741 111.292984869326Q299.8584914548435 98.77579092159561 309.2383787756025 91.96698762035764Q318.6182660963615 85.15818431911967 330.0962861072902 85.15818431911967Q353.0674002751032 85.15818431911967 365.5845942228336 101.43560927546412Q378.10178817056396 117.71303423180856 378.10178817056396 147.46905089408529V170.30261348005502Q378.10178817056396 199.73865199449793 365.5845942228336 215.9009628610729Q353.0674002751032 232.06327372764787 330.0962861072902 232.06327372764787Z" fill="black"/>
<path d="M472.2001375515818 232.06327372764787Q441.1134800550206 232.06327372764787 423.9883081155433 215.35075653370012Q406.863136176066 198.6382393397524 406.863136176066 168.10178817056396V152.0082530949106Q406.863136176066 120.09628610729024 423.30055020632733 102.62723521320495Q439.7379642365887 85.15818431911967 469.72420907840433 85.15818431911967Q498.05983493810174 85.15818431911967 513.5343878954607 105.99724896836314Q529.0089408528197 126.8363136176066 529.0089408528197 164.6629986244842V174.0165061898212H431.347317744154V148.5694635488308H494.621045392022L494.2083906464924 145.26822558459423Q492.6953232462173 133.0261348005502 486.5055020632737 126.21733149931225Q480.3156808803301 119.40852819807428 469.72420907840433 119.40852819807428Q456.1066024759284 119.40852819807428 448.6100412654745 127.52407152682255Q441.1134800550206 135.63961485557084 441.1134800550206 150.4951856946355V168.65199449793673Q441.1134800550206 183.23246217331499 449.29779917469045 191.21045392022006Q457.48211829436036 199.18844566712517 472.2001375515818 199.18844566712517Q479.7654745529573 199.18844566712517 487.1932599724896 196.50618982118294Q494.621045392022 193.82393397524072 500.6733149931224 188.87207702888583L525.2950481430536 210.74277854195324Q514.1533700137551 220.92159559834937 500.2606602475928 226.49243466299862Q486.3679504814305 232.06327372764787 472.2001375515818 232.06327372764787Z" fill="black"/>
<path d="M560.5213204951856 230.0V87.22145804676754H600.9614855570838V230.0ZM640.8514442916093 126.9738651994498Q638.2084286208554 124.2638937362705 634.194960380081 122.86784783099633Q630.1814921393068 121.47180192572215 624.8954607977992 121.47180192572215Q613.5150902176551 121.47180192572215 607.2382878873696 128.83081155433288Q600.9614855570838 136.1898211829436 600.9614855570838 149.25722145804679L598.0729023383768 112.11829436038515Q603.987620357634 99.46354883081156 613.3936220980827 92.31086657496562Q622.7996238385313 85.15818431911967 634.111416781293 85.15818431911967Q643.0246391523458 85.15818431911967 650.2430938894661 87.97799174690509Q657.4615486265865 90.79779917469051 662.8596973865199 96.29986244841817Z" fill="black"/>
<path d="M739.6265474552956 232.06327372764787Q708.952544704264 232.06327372764787 692.0337001375515 214.75251390002958Q675.1148555708389 197.4417540724113 675.1148555708389 165.9009628610729V150.63273727647868Q675.1148555708389 119.36350010177584 692.013103534666 102.26084221044775Q708.9113514984931 85.15818431911967 739.6877350241016 85.15818431911967Q757.2331499312241 85.15818431911967 771.4562001104744 91.07290233837689Q785.6792502897247 96.98762035763411 794.0969738651993 107.99174690508941L769.7503438789545 131.65061898211832Q764.6609353507564 126.8363136176066 757.6097255733193 124.15405777166438Q750.5585157958824 121.47180192572215 742.790233837689 121.47180192572215Q728.522585082309 121.47180192572215 720.6632870390912 129.1091897556822Q712.8039889958734 136.74657758564223 712.8039889958734 150.63273727647868V165.9009628610729Q712.8039889958734 180.1865242267407 720.6632870390912 187.96809017389305Q728.522585082309 195.7496561210454 742.790233837689 195.7496561210454Q750.5442477876105 195.7496561210454 757.5825066036931 192.83876724041787Q764.6207654197757 189.92787835979033 769.7503438789545 184.6079779917469L794.0969738651993 209.6423658872077Q785.7122609704128 220.3713892709766 771.4727054508185 226.21733149931225Q757.2331499312241 232.06327372764787 739.6265474552956 232.06327372764787Z" fill="black"/>
<path d="M899.3370013755157 87.22145804676754H934.825309491059L871.2764786795047 263.42503438789544Q865.9119669876202 278.14305364511694 856.42090784044 283.85144429160937Q846.9298486932598 289.5598349381018 830.1485557083905 289.5598349381018H821.7579092159559V252.9711141678129H830.1485557083905Q836.0632737276478 252.9711141678129 840.1210453920219 250.35763411279228Q844.178817056396 247.74415405777165 846.3796423658871 241.55433287482805ZM862.6107290233837 241.69188445667126 802.9133425034387 87.22145804676754H838.401650618982L886.4071526822557 211.292984869326Z" fill="black"/>
<rect x="820.76" y="283.56" width="10.39" height="8.00" fill="white"/>
<circle cx="825.95" cy="289.56" r="10.00" fill="black"/>
<circle cx="825.95" cy="289.56" r="3.80" fill="white"/>
<text x="192" y="130" text-anchor="end" dominant-baseline="middle" font-family="Segoe UI,Arial" font-size="13" fill="#555">Bahnschrift Bold</text>
<path d="M261.32049518569465 587.6066024759285V386.7812929848694H291.7881705639615V587.6066024759285ZM327.00137551581844 531.6231086657497Q313.86519944979364 531.6231086657497 304.16781292984865 525.2269601100413Q294.4704264099037 518.830811554333 289.8624484181568 507.1389270976617L291.7881705639615 476.60247592847327Q291.7881705639615 485.27246295559894 294.8871267901934 491.3543941537319Q297.98608301642525 497.43632535186487 303.86118752865656 500.6713951381058Q309.73629204088786 503.9064649243467 318.1292984869326 503.9064649243467Q331.20286263009007 503.9064649243467 338.38685084736966 495.8070180573035Q345.57083906464925 487.70757119026024 345.57083906464925 472.9573590096287V444.07152682255855Q345.57083906464925 429.0440165061899 338.38685084736966 420.7393397524072Q331.20286263009007 412.43466299862456 318.1292984869326 412.43466299862456Q309.73629204088786 412.43466299862456 303.86118752865656 415.57564669275257Q297.98608301642525 418.7166303868806 294.8871267901934 424.73684913395925Q291.7881705639615 430.757067881038 291.7881705639615 439.39477303989L288.8995873452545 410.85281980742786Q295.1984605528443 398.3356258596975 305.38387254809595 391.52682255845946Q315.5692845433476 384.7180192572215 328.03301237964234 384.7180192572215Q351.00412654745526 384.7180192572215 363.5213204951857 400.1869628415621Q376.0385144429161 415.6559064259027 376.0385144429161 443.9339752407153V472.9573590096287Q376.0385144429161 500.8459422283357 363.21182943603856 516.2345254470426Q350.38514442916096 531.6231086657497 327.00137551581844 531.6231086657497Z" fill="black"/>
<path d="M472.2001375515818 531.6231086657497Q442.0419532324621 531.6231086657497 425.484181568088 514.9621733149932Q408.9264099037139 498.30123796423663 408.9264099037139 467.6616231086658V451.5680880330125Q408.9264099037139 419.65612104539207 424.84800550206324 402.1870701513068Q440.7696011004126 384.7180192572215 469.72420907840433 384.7180192572215Q497.02819807427784 384.7180192572215 511.98693259972487 404.783356258597Q526.9456671251719 424.84869325997255 526.9456671251719 461.12792297111423V470.4814305364512H430.3156808803301V447.20082530949117H498.3349381017881L498.23177441540577 446.375515818432Q496.92503438789544 430.3163686382394 489.5488308115543 421.28954607978Q482.17262723521316 412.2627235213206 469.72420907840433 412.2627235213206Q454.45598349381015 412.2627235213206 445.9793672627235 422.13204951856954Q437.5027510316368 432.0013755158185 437.5027510316368 450.05502063273735V468.21182943603856Q437.5027510316368 485.1650618982119 446.61554332874823 494.2778541953233Q455.72833562585964 503.3906464924347 472.2001375515818 503.3906464924347Q480.48762035763406 503.3906464924347 488.6375515818431 500.1409903713893Q496.78748280605225 496.89133425034396 503.2524071526822 491.0110041265475L523.2317744154058 510.3026134800551Q512.5027510316368 520.4814305364513 499.12585969738643 526.0522696011005Q485.7489683631361 531.6231086657497 472.2001375515818 531.6231086657497Z" fill="black"/>
<path d="M562.5845942228335 529.5598349381019V386.7812929848694H593.7400275103163V529.5598349381019ZM641.573590096286 422.0976616231087Q638.127416646273 418.01576710669497 632.8943384444012 415.9129729618757Q627.6612602425296 413.81017881705645 620.7689133425033 413.81017881705645Q607.9169431183752 413.81017881705645 600.8284853143457 421.1691884456672Q593.7400275103163 428.52819807427795 593.7400275103163 441.5955983493811L590.8514442916093 411.678129298487Q597.178817056396 399.0233837689134 607.4223394997613 391.87070151306744Q617.6658619431265 384.7180192572215 629.9848693259971 384.7180192572215Q639.5377966519103 384.7180192572215 647.274322303178 387.53782668500696Q655.0108479544457 390.35763411279237 660.796423658872 395.85969738652Z" fill="black"/>
<path d="M739.6265474552956 531.6231086657497Q709.8810178817056 531.6231086657497 693.5295735900962 515.1221037157227Q677.1781292984869 498.62109876569576 677.1781292984869 468.55570839064654V447.0976616231087Q677.1781292984869 417.3064871299832 693.5244244393748 401.01225319360236Q709.8707195802629 384.7180192572215 739.6418443474971 384.7180192572215Q756.6141678129297 384.7180192572215 770.2799716232169 390.63273727647874Q783.945775433504 396.547455295736 792.0337001375515 407.5515818431913L770.7819807427784 427.08390646492444Q765.073590096286 420.7221458046768 757.2241301553655 417.26616231086666Q749.374670214445 413.81017881705645 740.7269601100412 413.81017881705645Q724.9867329280737 413.81017881705645 716.3162688024137 422.5283290757844Q707.6458046767536 431.2464793345124 707.6458046767536 447.0976616231087V468.55570839064654Q707.6458046767536 484.8162321570979 716.3162688024137 493.67359063150633Q724.9867329280737 502.5309491059148 740.7269601100412 502.5309491059148Q749.3711032123771 502.5309491059148 757.2173254129589 498.8114799806685Q765.0635476135408 495.0920108554222 770.7819807427784 488.2943603851445L792.0337001375515 509.20220082530955Q783.954028103676 519.9312242090784 770.2325161151117 525.777166437414Q756.5110041265474 531.6231086657497 739.6265474552956 531.6231086657497Z" fill="black"/>
<path d="M902.4319119669875 386.7812929848694H932.7620357634112L871.2764786795047 562.9848693259974Q866.118294360385 577.7028885832187 856.5240715268224 583.4112792297112Q846.9298486932598 589.1196698762036 830.1485557083905 589.1196698762036H823.8211829436037V559.7524071526823H830.1485557083905Q837.5075653370013 559.7524071526823 841.977991746905 556.7262723521321Q846.4484181568087 553.7001375515819 849.5777166437413 546.375515818432ZM862.6107290233837 541.2517193947731 804.9766162310866 386.7812929848694H835.3067400275102L880.2173314993122 510.85281980742786Z" fill="black"/>
<rect x="821.98" y="583.12" width="10.00" height="8.00" fill="white"/>
<circle cx="826.98" cy="589.12" r="10.00" fill="black"/>
<circle cx="826.98" cy="589.12" r="3.80" fill="white"/>
<text x="192" y="430" text-anchor="end" dominant-baseline="middle" font-family="Segoe UI,Arial" font-size="13" fill="#555">Bahnschrift SemiBold</text>
<path d="M291.0373443983402 792.3285218817362Q296.8464730290456 799.3824637904498 303.69294605809125 802.2870281058025Q310.53941908713693 805.1915924211552 318.5615491009682 805.1915924211552Q326.30705394190875 805.1915924211552 332.5311203319502 802.2870281058025Q338.7551867219917 799.3824637904498 343.1120331950208 793.4350225732991Q347.4688796680498 787.4875813561483 349.82019363762106 778.4281069439768Q352.17150760719227 769.3686325318052 352.17150760719227 757.0588123381676Q352.17150760719227 744.6106795580847 350.16597510373447 735.9661429052493Q348.1604426002766 727.3216062524139 344.4260027662517 721.9274153810445Q340.6915629322268 716.5332245096753 335.36652835408023 714.0435979536587Q330.04149377593365 711.553971397642 323.26417704011067 711.553971397642Q312.61410788381744 711.553971397642 305.14522821576764 716.0491304571165Q297.67634854771785 720.5442895165909 291.0373443983402 728.7047321168675ZM289.2392807745505 706.5747182856088Q297.95297372060855 696.7545246479879 309.0179806362379 690.6687708443917Q320.08298755186723 684.5830170407955 335.0207468879668 684.5830170407955Q346.63900414937757 684.5830170407955 356.2517289073306 689.4239575663834Q365.8644536652836 694.2648980919712 372.84923928077455 703.4626850905881Q379.83402489626553 712.660472089205 383.63762102351313 726.1459492676282Q387.44121715076074 739.6314264460515 387.44121715076074 757.0588123381676Q387.44121715076074 772.9647597793847 383.1535269709544 786.5193932510307Q378.865836791148 800.0740267226766 370.9128630705394 810.032532946743Q362.95988934993085 819.9910391708094 351.6874135546335 825.5926989218467Q340.4149377593361 831.194358672884 326.4453665283541 831.194358672884Q314.55048409405254 831.194358672884 306.1134163208852 827.5290751320819Q297.67634854771785 823.8637915912797 291.0373443983402 817.3631000283474V875.4543863354014H256.87413554633474V687.2109561832575H277.7593360995851Q284.39834024896265 687.2109561832575 286.47302904564316 693.435022573299Z" fill="black"/>
<path d="M503.9218533886584 741.8444278291773Q503.9218533886584 735.2054236797998 502.05463347164596 729.3271387558716Q500.1874135546335 723.4488538319436 496.4529737206086 719.0228510656918Q492.7185338865837 714.5968482994401 486.97856154910096 712.0380654502009Q481.23858921161826 709.4792826009616 473.6313969571231 709.4792826009616Q458.8319502074689 709.4792826009616 450.3257261410788 717.9163503741289Q441.8195020746888 726.3534181472962 439.4681881051176 741.8444278291773ZM438.77662517289076 762.453003209537Q439.6065006915629 773.3796975387208 442.649377593361 781.3326712593295Q445.6922544951591 789.2856449799381 450.67150760719227 794.4723669716393Q455.65076071922545 799.6590889633405 462.4972337482711 802.2178718125798Q469.34370677731675 804.7766546618191 477.6424619640387 804.7766546618191Q485.94121715076074 804.7766546618191 491.9578146611342 802.840278451584Q497.97441217150765 800.9039022413489 502.46957123098207 798.5525882717776Q506.96473029045643 796.2012743022063 510.35338865836786 794.2648980919712Q513.7420470262794 792.3285218817362 516.9232365145228 792.3285218817362Q521.2109266943291 792.3285218817362 523.2856154910097 795.5097113699795L533.1058091286307 807.9578441500626Q527.4349930843707 814.5968482994401 520.381051175657 819.0920073589145Q513.3271092669434 823.587166418389 505.6507607192255 826.2842618540735Q497.97441217150765 828.9813572897582 490.02143845089904 830.0878579813211Q482.0684647302905 831.194358672884 474.5995850622407 831.194358672884Q459.80013831258645 831.194358672884 447.0753803596127 826.2842618540735Q434.350622406639 821.3741650352631 424.94536652835404 811.7614402773102Q415.54011065006915 802.1487155193571 410.14591977869986 787.971675408707Q404.7517289073306 773.794635298057 404.7517289073306 755.1224361279325Q404.7517289073306 740.599614551169 409.45435684647305 727.8057003049726Q414.1569847856155 715.0117860587762 422.9398340248963 705.5373738872686Q431.722683264177 696.062961715761 444.37828492392805 690.5304582579463Q457.03388658367913 684.9979548001317 472.9398340248963 684.9979548001317Q486.35615491009685 684.9979548001317 497.6977869986169 689.2856449799381Q509.03941908713693 693.5733351597444 517.1998616874135 701.8029340532437Q525.3603042876902 710.032532946743 529.9937759336099 721.9965716742672Q534.6272475795297 733.9606104017914 534.6272475795297 749.3133074972271Q534.6272475795297 757.0588123381676 532.9674965421854 759.7559077738523Q531.307745504841 762.453003209537 526.6051175656985 762.453003209537Z" fill="black"/>
<path d="M590.9419087136929 711.8305965705327Q597.5809128630706 699.105838617559 606.7095435684648 691.8444278291772Q615.838174273859 684.5830170407955 628.2863070539419 684.5830170407955Q638.1065006915629 684.5830170407955 644.0539419087137 688.870707220602L641.8409405255878 714.4585357129947Q641.149377593361 716.9481622690114 639.83540802213 717.9855066673516Q638.521438450899 719.0228510656918 636.3084370677732 719.0228510656918Q634.2337482710926 719.0228510656918 630.1535269709543 718.331288133465Q626.073305670816 717.6397252012382 622.2005532503458 717.6397252012382Q616.5297372060858 717.6397252012382 612.103734439834 719.2994762385827Q607.6777316735823 720.959227275927 604.1507607192254 724.0712604709477Q600.6237897648687 727.1832936659684 597.926694329184 731.6092964322202Q595.2295988934993 736.0352991984719 592.878284923928 741.7061152427319V829.1196698762036H558.7150760719226V687.2109561832575H578.7704011065007Q584.0262793914246 687.2109561832575 586.1009681881051 689.07817610027Q588.1756569847856 690.9453960172824 588.8672199170124 695.7863365428702Z" fill="black"/>
<path d="M762.0560165975103 717.2247874419021Q760.5345781466112 719.1611636521372 759.0822959889349 720.2676643437002Q757.6300138312586 721.3741650352631 754.8637621023513 721.3741650352631Q752.2358229598893 721.3741650352631 749.7461964038728 719.7835702911414Q747.2565698478561 718.1929755470196 743.798755186722 716.1874430435619Q740.3409405255878 714.181910540104 735.5691562932227 712.5913157959824Q730.7973720608575 711.0007210518606 723.7434301521438 711.0007210518606Q714.753112033195 711.0007210518606 707.975795297372 714.2510668333267Q701.198478561549 717.5014126147928 696.7033195020747 723.587166418389Q692.2081604426003 729.6729202219851 689.9951590594744 738.3174568748204Q687.7821576763484 746.9619935276559 687.7821576763484 757.8886878568399Q687.7821576763484 769.23031994536 690.2026279391423 778.0823254778634Q692.6230982019363 786.9343310103668 697.1874135546334 792.9509285207403Q701.7517289073305 798.9675260311137 708.2524204702627 802.0795592261345Q714.753112033195 805.1915924211552 722.9135546334716 805.1915924211552Q731.0739972337482 805.1915924211552 736.1224066390041 803.1860599176973Q741.1708160442599 801.1805274142396 744.6286307053941 798.7600571514456Q748.0864453665283 796.3395868886518 750.6452282157676 794.3340543851939Q753.2040110650069 792.3285218817362 756.3852005532503 792.3285218817362Q760.5345781466112 792.3285218817362 762.6092669432918 795.5097113699795L772.4294605809127 807.9578441500626Q766.7586445366528 814.5968482994401 760.1196403872752 819.0920073589145Q753.4806362378976 823.587166418389 746.3575380359612 826.2842618540735Q739.2344398340249 828.9813572897582 731.6964038727524 830.0878579813211Q724.1583679114799 831.194358672884 716.6894882434301 831.194358672884Q703.5497925311203 831.194358672884 691.9315352697095 826.2842618540735Q680.3132780082987 821.3741650352631 671.5995850622405 811.9689091569782Q662.8858921161825 802.5636532786932 657.8374827109267 788.9398635138245Q652.7890733056707 775.316073748956 652.7890733056707 757.8886878568399Q652.7890733056707 742.2593655885134 657.2842323651452 728.9122009965356Q661.7793914246196 715.5650364045576 670.4930843706777 705.8139990601594Q679.2067773167357 696.062961715761 692.0698478561549 690.5304582579463Q704.9329183955739 684.9979548001317 721.6687413554633 684.9979548001317Q737.5746887966804 684.9979548001317 749.5387275242047 690.1155204986103Q761.5027662517289 695.2330861970888 771.0463347164591 704.7766546618191Z" fill="black"/>
<path d="M921.1369294605809 687.2109561832575 843.8201936376211 868.1238192537969Q842.298755186722 871.7199465013765 839.878284923928 873.587166418389Q837.4578146611342 875.4543863354014 832.478561549101 875.4543863354014H807.0290456431535L833.5850622406639 818.4696007199104L776.1853388658368 687.2109561832575H806.1991701244813Q810.210235131397 687.2109561832575 812.4923928077455 689.1473323934927Q814.774550484094 691.0837086037278 815.8810511756569 693.5733351597444L846.0331950207469 767.1556311486794Q847.554633471646 770.8900709827043 848.5919778699862 774.6245108167292Q849.6293222683264 778.3589506507541 850.5975103734439 782.2317030712244Q851.8423236514523 778.3589506507541 853.0871369294605 774.5553545235065Q854.3319502074688 770.7517583962589 855.8533886583679 767.017318562234L884.3457814661134 693.5733351597444Q885.4522821576763 690.8070834308371 888.0110650069156 689.0090198070473Q890.5698478561549 687.2109561832575 893.7510373443984 687.2109561832575Z" fill="black"/>
<rect x="806.03" y="865.53" width="27.45" height="11.93" fill="white"/>
<circle cx="819.75" cy="875.45" r="16.54" fill="black"/>
<circle cx="819.75" cy="875.45" r="6.29" fill="white"/>
<text x="192" y="729" text-anchor="end" dominant-baseline="middle" font-family="Segoe UI,Arial" font-size="13" fill="#555">Lato Bold</text>
<path d="M288.05555555555554 1086.4410161187116Q294.30555555555554 1094.4965716742672 301.7361111111111 1097.7604605631561Q309.1666666666667 1101.024349452045 318.19444444444446 1101.024349452045Q335.69444444444446 1101.024349452045 345.4861111111111 1088.2465716742672Q355.27777777777777 1075.4687938964894 355.27777777777777 1050.1910161187116Q355.27777777777777 1037.1354605631561 353.05555555555554 1027.899349452045Q350.83333333333337 1018.6632383409338 346.6666666666667 1012.8299050076005Q342.5 1006.9965716742672 336.52777777777777 1004.3576827853783Q330.55555555555554 1001.7187938964894 323.05555555555554 1001.7187938964894Q311.6666666666667 1001.7187938964894 303.4027777777778 1006.649349452045Q295.1388888888889 1011.5799050076006 288.05555555555554 1020.7465716742672ZM286.52777777777777 1000.8854605631561Q295.4166666666667 990.4687938964894 306.7361111111111 984.0799050076005Q318.05555555555554 977.6910161187117 333.05555555555554 977.6910161187117Q345.0 977.6910161187117 354.72222222222223 982.4826827853783Q364.44444444444446 987.274349452045 371.3888888888889 996.4410161187117Q378.33333333333337 1005.6076827853783 382.1527777777778 1019.1493494520449Q385.97222222222223 1032.6910161187116 385.97222222222223 1050.1910161187116Q385.97222222222223 1065.8854605631561 381.7361111111111 1079.4271272298229Q377.5 1092.9687938964894 369.58333333333337 1102.899349452045Q361.6666666666667 1112.8299050076005 350.4166666666667 1118.4549050076005Q339.1666666666667 1124.0799050076005 325.0 1124.0799050076005Q312.5 1124.0799050076005 303.81944444444446 1120.0521272298229Q295.1388888888889 1116.024349452045 288.05555555555554 1108.9410161187116V1169.0799050076005H258.19444444444446V980.3299050076005H276.25Q282.3611111111111 980.3299050076005 284.02777777777777 986.024349452045Z" fill="black"/>
<path d="M506.41666666666663 1035.1910161187116Q506.41666666666663 1027.6910161187116 504.26388888888886 1021.2326827853783Q502.1111111111111 1014.774349452045 497.94444444444446 1009.9826827853783Q493.77777777777777 1005.1910161187117 487.5972222222222 1002.4826827853783Q481.41666666666663 999.774349452045 473.3611111111111 999.774349452045Q457.1111111111111 999.774349452045 447.80555555555554 1009.0799050076006Q438.5 1018.3854605631561 436.0 1035.1910161187116ZM435.16666666666663 1053.524349452045Q435.72222222222223 1065.6076827853783 438.91666666666663 1074.4271272298229Q442.1111111111111 1083.2465716742672 447.4583333333333 1089.0799050076007Q452.80555555555554 1094.913238340934 460.2361111111111 1097.7604605631561Q467.66666666666663 1100.6076827853783 476.8333333333333 1100.6076827853783Q485.5833333333333 1100.6076827853783 491.9722222222222 1098.5937938964894Q498.3611111111111 1096.5799050076005 503.0833333333333 1094.149349452045Q507.80555555555554 1091.7187938964894 511.13888888888886 1089.7049050076005Q514.4722222222222 1087.6910161187116 517.25 1087.6910161187116Q520.8611111111111 1087.6910161187116 522.8055555555555 1090.4687938964894L531.2777777777778 1101.4410161187116Q526.0 1107.6910161187116 519.3333333333333 1111.9965716742672Q512.6666666666666 1116.3021272298229 505.16666666666663 1119.0104605631561Q497.66666666666663 1121.7187938964894 489.75 1122.899349452045Q481.8333333333333 1124.0799050076005 474.3333333333333 1124.0799050076005Q459.6111111111111 1124.0799050076005 447.04166666666663 1119.149349452045Q434.47222222222223 1114.2187938964894 425.2361111111111 1104.6354605631561Q416.0 1095.0521272298229 410.79166666666663 1080.8854605631561Q405.5833333333333 1066.7187938964894 405.5833333333333 1048.2465716742672Q405.5833333333333 1033.524349452045 410.2361111111111 1020.7465716742672Q414.88888888888886 1007.9687938964894 423.56944444444446 998.5243494520449Q432.25 989.0799050076005 444.68055555555554 983.5937938964894Q457.1111111111111 978.1076827853783 472.80555555555554 978.1076827853783Q485.8611111111111 978.1076827853783 496.9722222222222 982.3437938964894Q508.0833333333333 986.5799050076005 516.1388888888889 994.7743494520449Q524.1944444444445 1002.9687938964894 528.7083333333333 1014.8437938964894Q533.2222222222222 1026.7187938964894 533.2222222222222 1041.8576827853783Q533.2222222222222 1048.8021272298229 531.6944444444443 1051.163238340934Q530.1666666666666 1053.524349452045 526.1388888888889 1053.524349452045Z" fill="black"/>
<path d="M587.6944444444445 1006.5799050076006Q594.3611111111111 993.1076827853783 603.8055555555555 985.399349452045Q613.25 977.6910161187117 626.4444444444445 977.6910161187117Q631.0277777777778 977.6910161187117 635.0555555555557 978.7326827853783Q639.0833333333334 979.774349452045 642.2777777777778 981.8576827853783L640.1944444444445 1004.3576827853783Q639.6388888888889 1006.7187938964894 638.4583333333334 1007.6215716742672Q637.2777777777778 1008.524349452045 635.3333333333334 1008.524349452045Q633.25 1008.524349452045 629.3611111111111 1007.7604605631561Q625.4722222222222 1006.9965716742672 621.1666666666666 1006.9965716742672Q614.9166666666666 1006.9965716742672 610.125 1008.8021272298228Q605.3333333333334 1010.6076827853783 601.5138888888889 1014.0799050076005Q597.6944444444445 1017.5521272298228 594.7777777777778 1022.5521272298229Q591.8611111111111 1027.5521272298229 589.3611111111111 1033.9410161187116V1121.9965716742672H559.5V980.3299050076005H576.8611111111111Q581.5833333333334 980.3299050076005 583.3888888888889 982.0660161187116Q585.1944444444445 983.8021272298228 585.8888888888889 988.1076827853783Z" fill="black"/>
<path d="M760.6388888888889 1008.1076827853783Q759.25 1009.9132383409338 758.0 1010.8854605631561Q756.75 1011.8576827853783 754.3888888888889 1011.8576827853783Q752.0277777777778 1011.8576827853783 749.4583333333334 1010.1910161187117Q746.8888888888889 1008.524349452045 743.3472222222222 1006.5104605631561Q739.8055555555555 1004.4965716742672 734.8055555555555 1002.8299050076005Q729.8055555555555 1001.1632383409338 722.3055555555555 1001.1632383409338Q712.5833333333334 1001.1632383409338 705.2916666666667 1004.6354605631561Q698.0 1008.1076827853783 693.0694444444445 1014.5660161187117Q688.1388888888889 1021.024349452045 685.7083333333333 1030.2604605631561Q683.2777777777777 1039.4965716742672 683.2777777777777 1051.024349452045Q683.2777777777777 1062.9687938964894 685.9166666666666 1072.274349452045Q688.5555555555555 1081.5799050076005 693.4861111111111 1087.9687938964894Q698.4166666666666 1094.3576827853783 705.4305555555555 1097.6910161187116Q712.4444444444445 1101.024349452045 721.1944444444445 1101.024349452045Q729.8055555555555 1101.024349452045 735.2222222222222 1098.9410161187116Q740.6388888888889 1096.8576827853783 744.25 1094.3576827853783Q747.8611111111111 1091.8576827853783 750.4305555555555 1089.774349452045Q753.0 1087.6910161187116 755.9166666666666 1087.6910161187116Q759.5277777777778 1087.6910161187116 761.4722222222222 1090.4687938964894L769.9444444444445 1101.4410161187116Q764.8055555555555 1107.6910161187116 758.5555555555555 1111.9965716742672Q752.3055555555555 1116.3021272298229 745.3611111111111 1119.0104605631561Q738.4166666666666 1121.7187938964894 730.9166666666666 1122.899349452045Q723.4166666666666 1124.0799050076005 715.7777777777778 1124.0799050076005Q702.5833333333334 1124.0799050076005 691.125 1119.149349452045Q679.6666666666666 1114.2187938964894 671.125 1104.8437938964894Q662.5833333333334 1095.4687938964894 657.6527777777778 1081.9271272298229Q652.7222222222222 1068.3854605631561 652.7222222222222 1051.024349452045Q652.7222222222222 1035.3299050076005 657.1666666666666 1021.9271272298228Q661.6111111111111 1008.524349452045 670.1527777777778 998.8021272298228Q678.6944444444445 989.0799050076005 691.3333333333333 983.5937938964894Q703.9722222222222 978.1076827853783 720.5 978.1076827853783Q735.9166666666666 978.1076827853783 747.6527777777778 983.1076827853783Q759.3888888888889 988.1076827853783 768.5555555555555 997.274349452045Z" fill="black"/>
<path d="M918.0277777777778 980.3299050076005 839.9722222222223 1162.274349452045Q838.4444444444445 1165.4687938964894 836.2916666666667 1167.274349452045Q834.1388888888889 1169.0799050076005 829.6944444444445 1169.0799050076005H807.6111111111111L833.7222222222223 1112.413238340934L775.9444444444445 980.3299050076005H801.9166666666667Q805.6666666666667 980.3299050076005 807.6805555555557 982.0660161187116Q809.6944444444445 983.8021272298228 810.6666666666667 986.1632383409338L844.4166666666667 1066.5799050076005Q845.6666666666667 1070.0521272298229 846.7083333333334 1073.4549050076007Q847.75 1076.8576827853783 848.7222222222223 1080.4687938964894Q849.8333333333334 1076.8576827853783 850.9444444444445 1073.3854605631561Q852.0555555555555 1069.913238340934 853.4444444444445 1066.4410161187116L885.8055555555555 986.1632383409338Q886.7777777777778 983.6632383409338 889.0694444444445 981.9965716742672Q891.3611111111111 980.3299050076005 894.1388888888889 980.3299050076005Z" fill="black"/>
<rect x="806.61" y="1160.47" width="24.08" height="10.61" fill="white"/>
<circle cx="818.65" cy="1169.08" r="14.35" fill="black"/>
<circle cx="818.65" cy="1169.08" r="5.45" fill="white"/>
<text x="192" y="1022" text-anchor="end" dominant-baseline="middle" font-family="Segoe UI,Arial" font-size="13" fill="#555">Lato Semibold</text>
<path d="M308.3853459972863 1456.9890241844437H254.24694708276797V1275.4422127868859H304.0434192672999V1294.9808830718248Q314.4911804613297 1272.5928233703323 342.98507462686564 1272.5928233703323Q367.6797829036635 1272.5928233703323 381.6553595658073 1291.792280629491Q395.6309362279511 1310.9917378886498 395.6309362279511 1344.0989292047964Q395.6309362279511 1377.206120520943 381.31614654002715 1396.7447908058818Q367.00135685210313 1416.2834610908208 343.527815468114 1416.2834610908208Q320.4613297150611 1416.2834610908208 308.3853459972863 1398.6443837502509ZM308.3853459972863 1362.959173438175Q308.3853459972863 1372.1857677393962 312.59158751696066 1377.273963126099Q316.797829036635 1382.362158512802 323.0393487109905 1382.362158512802Q332.80868385345997 1382.362158512802 336.472184531886 1373.3390920270488Q340.1356852103121 1364.3160255412956 340.1356852103121 1345.5914665182293Q340.1356852103121 1324.017518078609 335.92944369063775 1315.2658220134804Q331.72320217096336 1306.5141259483514 323.31071913161463 1306.5141259483514Q318.29036635006787 1306.5141259483514 313.3378561736771 1310.4489970474015Q308.3853459972863 1314.3838681464517 308.3853459972863 1323.3390920270488Z" fill="black"/>
<path d="M506.8853459972863 1363.9089699103595 557.3602442333786 1367.3011001681614Q552.8826322930801 1387.6538817149728 534.4972862957939 1401.9686714028967Q516.1119402985075 1416.2834610908208 484.7686567164179 1416.2834610908208Q449.8975576662144 1416.2834610908208 429.1377204884668 1396.1342073594774Q408.37788331071914 1375.9849536281342 408.37788331071914 1346.1342073594776Q408.37788331071914 1315.1979794083243 428.86635006784263 1293.8954013893283Q449.3548168249661 1272.5928233703323 483.5474898236092 1272.5928233703323Q516.6546811397558 1272.5928233703323 537.0753052917232 1292.6742344965196Q557.4959294436907 1312.7556456227069 557.4959294436907 1347.3553742522863Q557.4959294436907 1350.2047636688399 557.3602442333786 1355.2251164503866H464.9586160108548Q465.229986431479 1368.250896640346 469.57191316146543 1374.5602589198575Q473.91383989145186 1380.869621199369 486.1255088195387 1380.869621199369Q503.7645861601086 1380.869621199369 506.8853459972863 1363.9089699103595ZM503.3575305291723 1328.0880743879713Q503.2218453188603 1314.1124977258276 497.7265943012212 1309.2956727597489Q492.23134328358213 1304.4788477936702 484.0902306648576 1304.4788477936702Q464.8229308005428 1304.4788477936702 464.8229308005428 1328.0880743879713Z" fill="black"/>
<path d="M628.9945725915876 1413.4340716742672H577.1628222523746V1275.4422127868859H622.2103120759838V1303.9361069524218Q629.9443690637721 1272.8641937909565 658.1668928086839 1272.8641937909565Q661.0162822252375 1272.8641937909565 666.0366350067843 1273.4069346322049V1321.5751842929917Q660.3378561736771 1320.218332189871 655.8602442333786 1320.218332189871Q628.9945725915876 1320.218332189871 628.9945725915876 1350.2047636688399Z" fill="black"/>
<path d="M764.8080054274084 1357.803135446316 810.9409769335142 1361.7380065453663Q807.6845318860244 1385.8899739809158 790.6560379918589 1401.0867175358683Q773.6275440976933 1416.2834610908208 745.4050203527815 1416.2834610908208Q713.7903663500679 1416.2834610908208 694.0481682496609 1396.4055777801018Q674.3059701492538 1376.5276944693826 674.3059701492538 1345.455781307917Q674.3059701492538 1313.7054420948914 693.9124830393487 1293.1491327326119Q713.5189959294437 1272.5928233703323 744.8622795115332 1272.5928233703323Q772.6777476255088 1272.5928233703323 790.1811397557666 1288.128779951065Q807.6845318860244 1303.6647365317976 810.2625508819539 1327.409648336411L762.9084124830393 1331.3445194354613Q759.9233378561737 1309.499200575217 746.3548168249661 1309.499200575217Q737.6709633649932 1309.499200575217 733.668249660787 1317.4367853784734Q729.6655359565807 1325.37437018173 729.6655359565807 1345.048725676981Q729.6655359565807 1362.0093769659904 733.668249660787 1370.1504895847152Q737.6709633649932 1378.2916022034397 747.5759837177748 1378.2916022034397Q762.0943012211669 1378.2916022034397 764.8080054274084 1357.803135446316Z" fill="black"/>
<path d="M954.3527815468115 1275.4422127868859 900.2143826322931 1424.9673145507936Q893.9728629579377 1441.9279658398032 882.303934871099 1451.4937731668047Q870.6350067842606 1461.059580493806 846.3473541383989 1461.059580493806Q840.5128900949796 1461.059580493806 819.2103120759838 1459.8384136009972V1421.4394990826797Q829.7937584803257 1423.0677216064246 838.7489823609227 1423.0677216064246Q862.0868385345998 1423.0677216064246 862.0868385345998 1412.7556456227069Q862.0868385345998 1409.363515364905 859.7801899592945 1403.3933661111737L810.2550881953867 1275.4422127868859H868.1926729986432L890.9877883310719 1348.9835967760312L914.8683853459974 1275.4422127868859Z" fill="black"/>
<rect x="818.21" y="1450.48" width="29.14" height="12.58" fill="white"/>
<circle cx="832.78" cy="1461.06" r="17.64" fill="black"/>
<circle cx="832.78" cy="1461.06" r="6.70" fill="white"/>
<text x="192" y="1313" text-anchor="end" dominant-baseline="middle" font-family="Segoe UI,Arial" font-size="13" fill="#555">Franklin Gothic Hvy</text>
<path d="M327.2944693572496 1588.6687624681576Q318.02690582959644 1588.8182392992487 309.6562032884903 1593.2278058164386Q301.28550074738416 1597.6373723336285 294.85799701046335 1605.1112138881874V1669.6852049195777Q297.1001494768311 1672.2263110481276 300.23916292974593 1674.7674171766778Q303.3781763826607 1677.308523305228 307.2645739910314 1679.4011989405044Q311.1509715994021 1681.4938745757809 315.8594917787743 1682.8391660556015Q320.5680119581465 1684.184457535422 325.6502242152466 1684.184457535422Q333.8714499252616 1684.184457535422 340.2989536621824 1680.6717520047794Q346.72645739910314 1677.1590464741366 350.9865470852018 1670.731542737216Q355.2466367713005 1664.304039000295 357.4887892376682 1655.4101675503698Q359.7309417040359 1646.5162961004446 359.7309417040359 1635.6044874307884Q359.7309417040359 1623.9452946056763 357.4140508221226 1615.1261615712965Q355.0971599402093 1606.307028536917 350.8370702541106 1600.4774321243608Q346.57698056801195 1594.6478357118049 340.5979073243647 1591.6582990899813Q334.6188340807175 1588.6687624681576 327.2944693572496 1588.6687624681576ZM331.92825112107624 1712.4355786116553Q320.2690582959641 1712.4355786116553 310.77727952167413 1708.1754889255567Q301.28550074738416 1703.915399239458 295.00747384155454 1697.6373723336285H294.40956651718983Q294.559043348281 1700.626908955452 294.70852017937216 1706.0828132902802Q294.85799701046335 1711.5387176251083 294.85799701046335 1717.966221362029V1778.2053842917749H259.4319880418535V1563.8556085070215H290.5231689088191L292.0179372197309 1580.1485830959602H292.6158445440957Q299.19282511210764 1571.4789268926718 309.5067264573991 1565.8735457267526Q319.8206278026906 1560.2681645608332 333.42301943198805 1560.2681645608332Q345.23168908819133 1560.2681645608332 356.66666666666663 1564.677731078023Q368.101644245142 1569.087297595213 376.92077727952164 1578.2053842917749Q385.73991031390136 1587.323470988337 391.04633781763823 1601.2248162798169Q396.35276532137516 1615.1261615712965 396.35276532137516 1634.2591959509678Q396.35276532137516 1654.4385681482772 390.6726457399103 1669.1620360107586Q384.99252615844546 1683.8855038732397 375.7249626307922 1693.526759478621Q366.45739910313904 1703.168015084002 355.1718983557549 1707.8017968478287Q343.8863976083707 1712.4355786116553 331.92825112107624 1712.4355786116553Z" fill="black"/>
<path d="M500.8318385650224 1683.8855038732397Q511.14573991031386 1683.8855038732397 522.3565022421524 1681.7928282379632Q533.567264573991 1679.7001526026868 545.076980568012 1675.813754994316V1704.0648760705492Q538.2010463378176 1707.0544126923728 524.0007473841554 1709.744995652014Q509.80044843049325 1712.4355786116553 494.5538116591928 1712.4355786116553Q479.15769805680117 1712.4355786116553 465.3310911808669 1708.4744425877388Q451.5044843049327 1704.5133065638227 441.19058295964123 1695.694173529443Q430.87668161434976 1686.8750404950633 424.82286995515693 1672.8242183724924Q418.7690582959641 1658.7733962499215 418.7690582959641 1638.743500883703Q418.7690582959641 1619.0125591796673 424.44917787742895 1604.2143529016403Q430.12929745889386 1589.4161466236135 439.6958146487294 1579.7001526026866Q449.262331838565 1569.9841585817599 461.59417040358744 1565.1261615712965Q473.92600896860984 1560.2681645608332 487.07997010463373 1560.2681645608332Q500.8318385650224 1560.2681645608332 512.4162929745889 1564.453515831386Q524.0007473841554 1568.6388671019392 532.4461883408071 1577.60747696741Q540.8916292974588 1586.576086832881 545.6001494768311 1600.7016473709975Q550.3086696562033 1614.8272079091141 550.3086696562033 1634.1097191198764Q550.1591928251121 1641.5835606744356 549.8602391629297 1646.815249762627H454.9424514200299Q455.68983557548574 1656.830197445736 459.42675635276527 1663.9303469225672Q463.1636771300448 1671.0304963993983 469.2174887892376 1675.440062916588Q475.27130044843045 1679.8496294337779 483.34304932735427 1681.8675666535087Q491.414798206278 1683.8855038732397 500.8318385650224 1683.8855038732397ZM486.6315396113602 1587.9213783127016Q479.90508221225707 1587.9213783127016 474.67339312406574 1590.387746025706Q469.4417040358744 1592.8541137387106 465.6300448430493 1597.1142034248091Q461.8183856502242 1601.374293110908 459.57623318385646 1607.0544126923728Q457.33408071748875 1612.7345322738377 456.58669656203284 1619.1620360107586H513.5373692077728Q513.5373692077728 1612.7345322738377 511.81838565022423 1607.0544126923728Q510.09940209267563 1601.374293110908 506.7361733931241 1597.1142034248091Q503.3729446935725 1592.8541137387106 498.3654708520179 1590.387746025706Q493.35799701046335 1587.9213783127016 486.6315396113602 1587.9213783127016Z" fill="black"/>
<path d="M667.7922272047832 1591.9572527521636H664.8026905829596Q648.5097159940209 1591.9572527521636 636.1778774289985 1596.815249762627Q623.8460388639761 1601.6732467730903 617.1195814648729 1611.6881944561994V1708.6986578343758H581.6935724962631V1563.8556085070215H610.9910313901345L614.2795216741405 1584.034980704331H614.8774289985053Q621.1554559043349 1572.9736952035837 632.1420029895366 1566.6209298822084Q643.1285500747384 1560.2681645608332 658.5246636771301 1560.2681645608332Q663.9058295964126 1560.2681645608332 667.7922272047832 1560.866071885198Z" fill="black"/>
<path d="M791.5538116591928 1705.559644381461Q784.8273542600897 1708.3997041721934 775.1113602391629 1710.4176413919245Q765.3953662182362 1712.4355786116553 754.6330343796711 1712.4355786116553Q738.9379671150971 1712.4355786116553 725.3355754857996 1707.9512736789197Q711.7331838565023 1703.4669687461844 701.568759342302 1694.3488820496223Q691.4043348281016 1685.2307953530603 685.5747384155455 1671.254711646035Q679.7451420029895 1657.2786279390095 679.7451420029895 1638.594024052612Q679.7451420029895 1617.6672676998467 686.4715994020926 1602.7195845907286Q693.1980568011958 1587.7719014816105 703.8856502242152 1578.4295995384118Q714.5732436472347 1569.087297595213 727.9514200298954 1564.677731078023Q741.329596412556 1560.2681645608332 754.3340807174887 1560.2681645608332Q764.0500747384156 1560.2681645608332 773.0186846038864 1561.9871481183818Q781.9872944693573 1563.7061316759305 789.3116591928251 1566.6956682977539V1595.5446966983518Q782.7346786248131 1592.7046369076195 775.3355754857996 1590.985653350071Q767.9364723467862 1589.2666697925224 759.4162929745889 1589.2666697925224Q750.8961136023916 1589.2666697925224 743.1233183856502 1591.882514336618Q735.3505231689088 1594.4983588807136 729.3714499252616 1600.1784784621784Q723.3923766816143 1605.8585980436433 719.8796711509715 1615.2008999868422Q716.3669656203288 1624.543201930041 716.3669656203288 1637.6971630660648Q716.3669656203288 1647.2636802559005 719.05754857997 1655.7091212125522Q721.7481315396113 1664.154562169204 726.9050822122571 1670.1336354128512Q732.0620328849028 1676.1127086564984 740.059043348281 1679.7748910182322Q748.0560538116591 1683.4370733799663 758.9678624813154 1683.4370733799663Q768.6838565022421 1683.4370733799663 776.6061285500747 1681.4938745757809Q784.5284005979073 1679.5506757715955 791.5538116591928 1676.7106159808632Z" fill="black"/>
<path d="M802.7593423019431 1563.8556085070215H840.7264573991031L862.4005979073243 1616.321976220026Q874.6576980568011 1646.2173424382622 879.7399103139012 1660.5671182230155H880.337817638266Q884.0747384155454 1649.356355891177 896.1823617339312 1619.0125591796673L918.6038863976082 1563.8556085070215H957.0194319880418L863.7458893871449 1778.2053842917749H828.7683109118086L861.9521674140507 1700.626908955452Z" fill="black"/>
<rect x="827.77" y="1764.56" width="36.98" height="15.64" fill="white"/>
<circle cx="846.26" cy="1778.21" r="22.74" fill="black"/>
<circle cx="846.26" cy="1778.21" r="8.64" fill="white"/>
<text x="192" y="1609" text-anchor="end" dominant-baseline="middle" font-family="Segoe UI,Arial" font-size="13" fill="#555">Corbel Bold</text>
</svg>