<svg xmlns="http://www.w3.org/2000/svg" width="1254" height="1254" viewBox="0 0 1254 1254" role="img" aria-label="Percy logo mark" color="#000">
  <path fill="currentColor" fill-rule="evenodd" d="
    M391.742 1044.64 C385.334 1043.214 380 1039.047 380 1035.468 C380 1034.281 386.44 1023.903 394.311 1012.405 C402.182 1000.907 417.406 978.675 428.141 963 C455.144 923.573 479.351 887.192 481.881 882.234 C485.88 874.395 484.255 868.251 477.221 864.615 C475.724 863.841 466.4 861.556 456.5 859.537 C416.298 851.339 391.561 843.103 363.184 828.469 C309.638 800.855 280.123 760.443 271.913 703.5 C266.538 666.225 270.747 604.216 281.617 560.5 C299.189 489.836 337.434 431.083 397 383.244 C408.703 373.845 433.639 357.055 447.7 349.107 C493.227 323.373 568.654 296.403 617.142 288.522 C642.335 284.428 671.193 284.648 693.378 289.105 C708.406 292.125 714.295 295.988 715.474 303.601 C715.763 305.471 716.239 308.542 716.532 310.427 C716.868 312.595 718.738 315.717 721.62 318.922 C725.501 323.238 728.97 325.39 745.006 333.426 C766.735 344.313 777.626 350.971 796.581 364.951 C812.462 376.665 815.893 378.076 822.42 375.584 C824.888 374.641 828.288 372.297 829.977 370.373 C837.228 362.115 865.132 318.244 899.439 261.166 C947.014 182.012 949.176 178.649 955.318 174.238 C960.904 170.227 970.576 167.595 976.321 168.524 C984.747 169.885 993.279 175.004 996.242 180.476 C998.262 184.206 998.904 189.465 997.891 193.984 C996.655 199.502 993.537 205.677 983.493 222.5 C961.046 260.097 949.485 279.85 921.163 329 C875.884 407.577 873.565 412.036 873.527 420.588 C873.495 427.706 874.966 430.448 888.427 448.38 C923.18 494.676 946.335 559.721 948.631 617.5 C951.573 691.561 924.963 753.726 871.988 796.553 C830.048 830.458 787.661 849.231 724.5 861.874 C685.939 869.593 662.297 871.523 619.5 870.445 C577.914 869.398 575.755 869.44 570.628 871.398 C564.984 873.553 560.858 878.055 543.951 900.5 C525.308 925.25 514.069 939.633 482.812 978.741 C468.639 996.473 456.771 1012.065 456.439 1013.389 C455.44 1017.367 456.342 1020.182 459.326 1022.4 C461.855 1024.279 463.51 1024.5 475.076 1024.5 C482.185 1024.5 488.001 1024.853 488.001 1025.286 C488 1026.284 481.117 1029.245 474 1031.308 C467.192 1033.281 430.513 1041.339 419 1043.391 C406.071 1045.695 398.118 1046.06 391.742 1044.64 Z
    M681.5 815.498 C726.989 809.339 764.577 796.94 797.675 777.176 C813.677 767.62 823.793 760.029 835.744 748.609 C866.92 718.817 884.429 682.99 890.003 637.583 C891.376 626.4 891.391 597.281 890.031 585.269 C886.327 552.578 874.827 519.927 859.402 498.311 C851.495 487.229 843.205 483.87 836.155 488.889 C834.494 490.072 815.693 515.443 794.375 545.27 C755.976 598.994 736.631 625.712 688.498 691.5 C623.331 780.57 616 791.758 616 802.15 C616 810.291 619.777 814.717 628.643 816.965 C634.111 818.351 667.216 817.432 681.5 815.498 Z
    M522.5 810.989 C531.499 807.55 540.571 797.749 559.979 770.5 C581.247 740.641 590.835 727.605 635.37 668 C696.283 586.476 712.317 563.976 752.177 504.088 C780.371 461.727 787.44 449.358 788.988 439.675 C790.976 427.245 786.219 415.59 773.806 402.476 C757.929 385.703 735.97 374.274 696.035 361.996 C660.982 351.219 646.366 350.268 612.331 356.546 C532.17 371.333 465.348 404.683 415.02 455.022 C378.504 491.546 356.076 530.88 343.001 581.325 C335.96 608.493 330.293 643.063 329.368 664.5 C327.719 702.72 340.094 737.343 363.841 760.953 C383.606 780.603 411.365 793.47 463 806.916 C485.866 812.87 492.942 813.985 505.5 813.61 C513.98 813.357 517.875 812.757 522.5 810.989 Z
  "/>
</svg>
